<svg xmlns="http://www.w3.org/2000/svg" viewBox="0 0 120 120" fill="none">
  <rect width="120" height="120" rx="16" fill="#313244"/>
  <!-- Code window -->
  <rect x="20" y="25" width="80" height="70" rx="6" fill="#1e1e2e"/>
  <!-- Title bar -->
  <rect x="20" y="25" width="80" height="14" rx="6" fill="#45475a"/>
  <rect x="20" y="33" width="80" height="6" fill="#45475a"/>
  <circle cx="30" cy="32" r="3" fill="#f38ba8"/>
  <circle cx="40" cy="32" r="3" fill="#f9e2af"/>
  <circle cx="50" cy="32" r="3" fill="#a6e3a1"/>
  <!-- Code lines -->
  <rect x="28" y="46" width="16" height="3" rx="1" fill="#cba6f7"/>
  <rect x="48" y="46" width="24" height="3" rx="1" fill="#89b4fa"/>
  <rect x="36" y="54" width="12" height="3" rx="1" fill="#f38ba8"/>
  <rect x="52" y="54" width="32" height="3" rx="1" fill="#cdd6f4" opacity="0.6"/>
  <rect x="36" y="62" width="20" height="3" rx="1" fill="#a6e3a1"/>
  <rect x="60" y="62" width="16" height="3" rx="1" fill="#f9e2af"/>
  <rect x="36" y="70" width="28" height="3" rx="1" fill="#cdd6f4" opacity="0.6"/>
  <rect x="28" y="78" width="16" height="3" rx="1" fill="#cba6f7"/>
  <rect x="48" y="78" width="8" height="3" rx="1" fill="#89b4fa"/>
</svg>
